<?xml version="1.0" encoding="UTF-8" standalone="no"?>
<!-- Created with Inkscape (http://www.inkscape.org/) -->

<svg
   width="512"
   height="256"
   viewBox="0 0 512 256"
   version="1.1"
   id="svg1"
   inkscape:version="1.3.1 (9b9bdc1480, 2023-11-25, custom)"
   sodipodi:docname="logo.svg"
   xml:space="preserve"
   xmlns:inkscape="http://www.inkscape.org/namespaces/inkscape"
   xmlns:sodipodi="http://sodipodi.sourceforge.net/DTD/sodipodi-0.dtd"
   xmlns="http://www.w3.org/2000/svg"
   xmlns:svg="http://www.w3.org/2000/svg"><sodipodi:namedview
     id="namedview1"
     pagecolor="#ffffff"
     bordercolor="#000000"
     borderopacity="0.25"
     inkscape:showpageshadow="2"
     inkscape:pageopacity="0.0"
     inkscape:pagecheckerboard="true"
     inkscape:deskcolor="#d1d1d1"
     inkscape:document-units="mm"
     inkscape:zoom="1.4841611"
     inkscape:cx="253.67867"
     inkscape:cy="114.20593"
     inkscape:window-width="1920"
     inkscape:window-height="1031"
     inkscape:window-x="0"
     inkscape:window-y="24"
     inkscape:window-maximized="1"
     inkscape:current-layer="layer1" /><defs
     id="defs1" /><g
     inkscape:label="Layer 1"
     inkscape:groupmode="layer"
     id="layer1"><g
       id="g1"
       transform="translate(-2.2099866,31.144751)"><path
         style="fill:#ffffff;fill-opacity:0.999065;stroke-width:0.252271"
         d="m 85.340093,137.12109 v -8.07268 H 77.267406 69.19472 v -8.07269 -8.07268 h -8.072687 -8.072681 v -8.07269 -8.072682 h -8.072686 -8.072687 v -16.01924 -16.01923 h 8.072687 8.072686 V 56.644641 48.57009 l 16.0823,0.06493 16.082304,0.06494 0.06661,8.009618 0.06661,8.009618 h 7.939465 7.939469 l 0.0666,-8.009618 0.0666,-8.009618 16.08231,-0.06494 16.0823,-0.06493 v 8.074551 8.074557 h 8.07268 8.07269 v 16.01923 16.01924 h -8.07269 -8.07268 v 8.072682 8.07269 h -8.07268 -8.07269 v 8.07268 8.07269 h -8.07269 -8.07269 v 8.07268 8.07269 H 93.286621 85.34007 Z M 69.19472,72.791878 v -8.07268 h -8.072687 -8.072681 v 8.07268 8.07269 h 8.072681 8.072687 z"
         id="path1" /><text
         xml:space="preserve"
         style="font-size:49.1012px;fill:#ffffff;fill-opacity:0.999065;stroke-width:4.09176"
         x="195.95685"
         y="82.887558"
         id="text1"><tspan
           sodipodi:role="line"
           id="tspan1"
           x="195.95685"
           y="82.887558"
           style="font-style:normal;font-variant:normal;font-weight:normal;font-stretch:normal;font-family:'Russo One';-inkscape-font-specification:'Russo One';fill:#ffffff;fill-opacity:0.999065;stroke-width:4.09176">Your Game</tspan><tspan
           sodipodi:role="line"
           x="195.95685"
           y="144.69119"
           id="tspan2"
           style="font-style:normal;font-variant:normal;font-weight:normal;font-stretch:normal;font-family:'Russo One';-inkscape-font-specification:'Russo One';fill:#ffffff;fill-opacity:0.999065;stroke-width:4.09176">LOGO HERE</tspan></text></g></g></svg>
