# Blender v2.92.0 OBJ File: ''
# www.blender.org
mtllib imagingWell.mtl
o imagingWell2_V13_shallowProfile
v -6.168132 0.814821 1.230717
v -5.682631 0.814821 1.124835
v -6.168132 0.814821 -1.098690
v -3.997874 0.814821 3.615605
v -3.755123 0.814821 3.338369
v -5.682631 0.814821 -0.992808
v -3.997874 0.814821 -3.483578
v -3.755123 0.814821 -3.206342
v 4.100828 2.314821 -5.368466
v -0.827615 1.814821 -5.368466
v -0.827615 1.814821 -4.919878
v 3.789151 2.314821 -4.919878
v 4.100828 1.314821 -2.651226
v 4.100828 2.314821 5.500493
v -0.827615 1.814821 5.051904
v -0.827615 1.814821 5.500493
v 3.789151 2.314821 5.051904
v 3.789151 1.314821 2.558959
v 4.100828 1.314821 2.783253
v 3.789151 0.814821 0.066014
v 4.100828 0.814821 0.066014
v 3.789151 1.314821 -2.426932
v -7.128395 -0.564466 -3.952061
v -6.595807 -0.564466 -1.644494
v -6.821740 -0.564466 0.071639
v -5.863395 -0.564466 -5.600642
v -5.933404 -0.564466 -3.243674
v -4.879674 -0.564466 -4.616921
v -4.214815 -0.564466 -6.865642
v -3.506427 -0.564466 -5.670651
v -2.295002 -0.564466 -7.660854
v -1.907247 -0.564466 -6.333054
v -1.264896 -0.564466 -7.796471
v -0.191115 -0.564466 -6.558987
v -0.234790 -0.564466 -7.932086
v 1.825423 -0.564466 -7.660854
v 1.525017 -0.564466 -6.333054
v 3.124198 -0.564466 -5.670651
v 3.745235 -0.564466 -6.865642
v 4.497445 -0.564466 -4.616921
v 5.393816 -0.564466 -5.600642
v 5.551175 -0.564466 -3.243674
v 6.658816 -0.564466 -3.952061
v 5.809593 -0.565890 -2.616936
v 6.011585 -0.565178 -2.130715
v 6.213577 -0.564466 -1.644494
v 6.439510 -0.564466 0.071639
v 6.658816 -0.564466 4.007988
v 7.454028 -0.564466 2.088176
v 7.454028 -0.564466 -2.032249
v 7.725260 -0.564466 0.027964
v -7.923607 -0.564466 -2.032249
v -7.923607 -0.564466 2.088176
v -8.194839 -0.564466 0.027964
v -7.128395 -0.564466 4.007988
v -6.595807 -0.564466 1.787771
v -5.863395 -0.564466 5.656569
v -5.933404 -0.564466 3.386951
v -4.879674 -0.564466 4.760198
v -4.214815 -0.564466 6.921569
v -3.506427 -0.564466 5.813928
v -2.295002 -0.564466 7.716781
v -3.090006 -0.564466 5.986415
v -1.907247 -0.564466 6.476330
v -0.234790 -0.564466 7.988013
v -0.191115 -0.564466 6.702263
v 1.825423 -0.564466 7.716781
v 1.525017 -0.564466 6.476330
v 3.124198 -0.564466 5.813928
v 3.745235 -0.564466 6.921569
v 4.497445 -0.564466 4.760198
v 5.393816 -0.564466 5.656569
v 5.551175 -0.564466 3.386951
v 5.823510 -0.571635 2.714962
v 6.213577 -0.564466 1.787771
vn 0.0000 1.0000 0.0000
vn -0.1009 0.9949 0.0000
vn -0.1074 0.9914 -0.0746
vn 0.4451 0.8404 0.3093
vn -0.1074 0.9914 0.0746
vn 0.4723 0.8181 -0.3282
vn 0.2412 0.9108 -0.3352
vn 0.1401 0.9708 -0.1947
vn -0.2000 0.9640 -0.1751
vn -0.3232 0.9463 0.0000
vn -0.2000 0.9640 0.1751
vn 0.0000 0.9805 0.1967
vn 0.1291 0.9753 0.1795
vn 0.0000 0.9835 -0.1810
vn 0.2588 0.8965 0.3596
vn 0.0000 -1.0000 0.0000
vn -0.0011 -1.0000 -0.0018
vn 0.0024 -1.0000 0.0005
vn -0.0049 -1.0000 0.0087
vn 0.0124 -0.9999 -0.0025
vn -0.2725 0.8942 0.3552
vn -0.4520 0.8334 0.3180
vn -0.2579 0.7389 0.6225
vn -0.0921 0.7085 0.6996
vn 0.0892 0.7303 0.6773
vn -0.0650 0.6404 0.7653
vn 0.3542 0.3783 0.8552
vn -0.3585 0.8920 0.2751
vn -0.3488 0.8818 0.3174
vn -0.5335 0.8164 0.2210
vn -0.5921 0.8021 0.0780
vn -0.5325 0.8435 -0.0701
vn -0.6178 0.7863 0.0000
vn -0.4305 0.8131 -0.3918
vn -0.3785 0.9122 -0.1568
vn -0.3537 0.8951 -0.2714
vn -0.2678 0.8980 -0.3491
vn -0.1512 0.9187 -0.3650
vn 0.5804 0.3016 0.7564
vn 0.7393 0.3628 0.5673
vn 0.6498 0.7134 -0.2625
vn 0.5108 0.8332 0.2116
vn 0.4569 0.8748 -0.1610
vn 0.3557 0.9334 0.0468
vn 0.3549 0.9338 -0.0467
vn 0.4598 0.8734 0.1607
vn 0.5072 0.8358 -0.2101
vn 0.6543 0.7097 0.2612
vn 0.7352 0.3757 -0.5642
vn 0.5768 0.3196 -0.7517
vn -0.0733 0.7225 -0.6875
vn 0.3512 0.3975 -0.8478
vn 0.1076 0.5658 -0.8175
vn 0.3096 -0.5879 -0.7474
vn 0.5255 -0.6933 -0.4931
vn 0.2038 -0.8464 -0.4920
vn 0.3686 -0.7958 -0.4804
vn 0.4898 -0.7867 -0.3758
vn 0.5190 -0.8273 -0.2150
vn 0.8049 -0.5838 -0.1060
vn 0.5846 -0.6317 -0.5091
vn 0.7302 -0.6764 0.0961
vn 0.5238 -0.7511 0.4019
vn 0.4628 -0.7895 0.4030
vn 0.3698 -0.7944 0.4819
vn 0.2045 -0.8452 0.4937
vn 0.5473 -0.5968 0.5867
vn 0.1095 -0.5439 0.8320
vn -0.1060 -0.5832 0.8054
vn 0.0511 -0.4721 0.8800
vn -0.3783 -0.1508 0.9133
vn -0.6074 -0.0661 0.7916
vn -0.9638 -0.2475 -0.0993
vn -0.5716 -0.8045 -0.1614
vn -0.5586 -0.7101 0.4287
vn -0.6428 -0.7176 0.2681
vn -0.4609 -0.8854 0.0607
vn -0.4607 -0.8855 -0.0607
vn -0.5721 -0.8042 0.1613
vn -0.5576 -0.7113 -0.4279
vn -0.6421 -0.7153 -0.2757
vn -0.6470 -0.7188 -0.2545
vn -0.3977 -0.7570 -0.5183
vn -0.1217 -0.3616 -0.9244
vn 0.0576 -0.5319 -0.8448
vn 0.1045 -0.5993 -0.7936
vn -0.6438 -0.7183 0.2638
vn 0.8338 -0.5520 0.0000
vn 0.7241 -0.6211 0.2999
vn -0.3781 -0.1543 -0.9128
vn -0.9756 0.2037 -0.0817
vn -0.0907 0.7194 -0.6886
vn -0.5003 0.7407 -0.4485
usemtl None
s off
f 1//1 2//1 3//1
f 2//1 1//1 4//1
f 2//1 4//1 5//1
f 3//1 6//1 7//1
f 6//1 3//1 2//1
f 7//1 6//1 8//1
f 9//2 10//2 11//2
f 9//3 11//3 12//3
f 9//4 12//4 13//4
f 14//2 15//2 16//2
f 14//5 17//5 15//5
f 14//6 18//6 17//6
f 19//7 18//7 14//7
f 19//8 20//8 18//8
f 16//9 5//9 4//9
f 15//10 5//10 16//10
f 10//11 7//11 8//11
f 11//10 10//10 8//10
f 21//12 22//12 20//12
f 13//13 22//13 21//13
f 21//14 20//14 19//14
f 13//15 12//15 22//15
f 23//16 24//16 25//16
f 24//16 23//16 26//16
f 24//16 26//16 27//16
f 27//16 26//16 28//16
f 28//16 26//16 29//16
f 28//16 29//16 30//16
f 30//16 29//16 31//16
f 30//16 31//16 32//16
f 32//16 31//16 33//16
f 32//16 33//16 34//16
f 34//16 33//16 35//16
f 36//16 34//16 35//16
f 34//16 36//16 37//16
f 37//16 36//16 38//16
f 38//16 36//16 39//16
f 38//16 39//16 40//16
f 40//16 39//16 41//16
f 40//16 41//16 42//16
f 42//16 41//16 43//16
f 42//17 43//17 44//17
f 44//18 43//18 45//18
f 45//18 43//18 46//18
f 46//16 43//16 47//16
f 47//16 43//16 48//16
f 48//16 43//16 49//16
f 49//16 43//16 50//16
f 49//16 50//16 51//16
f 52//16 53//16 54//16
f 53//16 52//16 23//16
f 53//16 23//16 55//16
f 55//16 23//16 25//16
f 55//16 25//16 56//16
f 55//16 56//16 57//16
f 57//16 56//16 58//16
f 57//16 58//16 59//16
f 57//16 59//16 60//16
f 60//16 59//16 61//16
f 60//16 61//16 62//16
f 62//16 61//16 63//16
f 62//16 63//16 64//16
f 62//16 64//16 65//16
f 65//16 64//16 66//16
f 65//16 66//16 67//16
f 67//16 66//16 68//16
f 67//16 68//16 69//16
f 67//16 69//16 70//16
f 70//16 69//16 71//16
f 70//16 71//16 72//16
f 72//16 71//16 73//16
f 72//16 73//16 48//16
f 48//19 73//19 74//19
f 48//20 74//20 75//20
f 48//16 75//16 47//16
f 4//21 57//21 60//21
f 16//22 4//22 60//22
f 16//23 60//23 62//23
f 65//24 16//24 62//24
f 67//25 16//25 65//25
f 14//26 16//26 67//26
f 14//27 67//27 70//27
f 4//28 55//28 57//28
f 4//29 1//29 55//29
f 1//30 53//30 55//30
f 1//31 54//31 53//31
f 1//32 52//32 54//32
f 3//33 52//33 1//33
f 7//34 52//34 3//34
f 7//35 23//35 52//35
f 7//36 26//36 23//36
f 7//37 29//37 26//37
f 31//38 29//38 7//38
f 14//39 70//39 72//39
f 48//40 14//40 72//40
f 48//41 19//41 14//41
f 49//42 19//42 48//42
f 49//43 21//43 19//43
f 51//44 21//44 49//44
f 51//45 50//45 21//45
f 50//46 13//46 21//46
f 50//47 43//47 13//47
f 43//48 9//48 13//48
f 41//49 9//49 43//49
f 9//50 41//50 39//50
f 9//51 35//51 10//51
f 9//52 39//52 36//52
f 9//53 36//53 35//53
f 15//54 64//54 63//54
f 15//55 63//55 5//55
f 63//56 61//56 5//56
f 61//57 59//57 5//57
f 5//58 59//58 58//58
f 5//59 58//59 56//59
f 25//60 2//60 56//60
f 5//61 56//61 2//61
f 24//62 2//62 25//62
f 28//63 6//63 27//63
f 8//64 6//64 28//64
f 30//65 8//65 28//65
f 32//66 8//66 30//66
f 11//67 8//67 32//67
f 11//68 32//68 34//68
f 11//69 34//69 37//69
f 12//70 11//70 37//70
f 12//71 37//71 38//71
f 12//72 38//72 40//72
f 12//73 40//73 22//73
f 46//74 20//74 22//74
f 42//75 22//75 40//75
f 46//76 22//76 45//76
f 47//77 20//77 46//77
f 47//78 75//78 20//78
f 75//79 18//79 20//79
f 73//80 71//80 18//80
f 75//81 74//81 18//81
f 74//82 73//82 18//82
f 71//83 69//83 18//83
f 17//84 68//84 66//84
f 17//85 64//85 15//85
f 17//86 66//86 64//86
f 44//87 22//87 42//87
f 45//76 22//76 44//76
f 24//88 6//88 2//88
f 27//89 6//89 24//89
f 17//90 69//90 68//90
f 18//91 69//91 17//91
f 10//92 33//92 31//92
f 33//92 10//92 35//92
f 10//93 31//93 7//93
