# Blender v2.92.0 OBJ File: 'probe.blend'
# www.blender.org
mtllib probe.mtl
o NP1.0Probe_Cube
v 0.024000 10.200241 -0.035000
v 0.024000 0.200242 -0.035000
v 0.024000 10.200241 0.035000
v 0.024000 0.200242 0.035000
v -0.024000 10.200241 -0.035000
v -0.024000 0.200242 -0.035000
v -0.024000 10.200241 0.035000
v -0.024000 0.200242 0.035000
v 0.024000 11.200242 3.000000
v -0.024000 11.200242 3.000000
v 0.024000 11.200242 -3.000000
v -0.024000 11.200242 -3.000000
v 0.024000 21.200239 3.000000
v -0.024000 21.200239 3.000000
v 0.024000 21.200239 -3.000000
v -0.024000 21.200239 -3.000000
v -0.024000 0.000242 0.000000
v -0.024000 0.000242 0.000000
v 0.024000 0.000242 0.000000
v 0.024000 0.000242 0.000000
v -0.024000 10.311354 -0.044111
v -0.024000 10.422463 -0.162250
v -0.024000 10.533575 -0.235500
v -0.024000 10.644686 -0.370500
v -0.024000 10.755796 -0.611200
v -0.024000 10.866909 -0.910500
v -0.024000 10.978020 -1.409333
v -0.024000 11.089129 -2.273278
v 0.024000 11.089129 -2.273278
v 0.024000 10.978020 -1.409333
v 0.024000 10.866908 -0.910500
v 0.024000 10.755796 -0.611200
v 0.024000 10.644686 -0.370500
v 0.024000 10.533573 -0.235500
v 0.024000 10.422463 -0.162250
v 0.024000 10.311354 -0.044111
v 0.024000 10.311354 0.044111
v 0.024000 10.422463 0.162250
v 0.024000 10.533575 0.235500
v 0.024000 10.644686 0.370500
v 0.024000 10.755796 0.611200
v 0.024000 10.866909 0.910500
v 0.024000 10.978020 1.409333
v 0.024000 11.089129 2.273278
v -0.024000 11.089129 2.273278
v -0.024000 10.978020 1.409333
v -0.024000 10.866908 0.910500
v -0.024000 10.755796 0.611200
v -0.024000 10.644686 0.370500
v -0.024000 10.533573 0.235500
v -0.024000 10.422463 0.162250
v -0.024000 10.311354 0.044111
vt 0.625000 0.500000
vt 0.625000 0.250000
vt 0.625000 0.250000
vt 0.625000 0.500000
vt 0.375000 0.750000
vt 0.625000 0.750000
vt 0.625000 1.000000
vt 0.375000 1.000000
vt 0.375000 0.000000
vt 0.625000 0.000000
vt 0.625000 0.250000
vt 0.375000 0.250000
vt 0.375000 0.500000
vt 0.375000 0.500000
vt 0.375000 0.250000
vt 0.625000 0.500000
vt 0.625000 0.000000
vt 0.625000 0.000000
vt 0.625000 0.250000
vt 0.625000 1.000000
vt 0.625000 0.750000
vt 0.625000 0.750000
vt 0.625000 1.000000
vt 0.625000 0.000000
vt 0.625000 0.500000
vt 0.875000 0.500000
vt 0.875000 0.750000
vt 0.625000 0.750000
vt 0.625000 1.000000
vt 0.125000 0.500000
vt 0.375000 0.750000
vt 0.125000 0.750000
vt 0.375000 1.000000
vt 0.375000 0.000000
vt 0.625000 0.500000
vt 0.625000 0.750000
vt 0.625000 0.500000
vt 0.625000 0.750000
vt 0.625000 0.500000
vt 0.625000 0.750000
vt 0.625000 0.500000
vt 0.625000 0.750000
vt 0.625000 0.500000
vt 0.625000 0.750000
vt 0.625000 0.500000
vt 0.625000 0.750000
vt 0.625000 0.500000
vt 0.625000 0.750000
vt 0.625000 0.000000
vt 0.625000 0.250000
vt 0.625000 0.000000
vt 0.625000 0.250000
vt 0.625000 0.000000
vt 0.625000 0.250000
vt 0.625000 0.000000
vt 0.625000 0.250000
vt 0.625000 0.000000
vt 0.625000 0.250000
vt 0.625000 0.000000
vt 0.625000 0.250000
vt 0.625000 0.000000
vt 0.625000 0.250000
vt 0.625000 1.000000
vt 0.625000 1.000000
vt 0.625000 1.000000
vt 0.625000 1.000000
vt 0.625000 1.000000
vt 0.625000 1.000000
vt 0.625000 1.000000
vn 0.0000 -0.9885 -0.1511
vn 0.0000 0.0000 1.0000
vn -1.0000 0.0000 0.0000
vn 0.0000 -0.1724 -0.9850
vn 1.0000 0.0000 0.0000
vn 0.0000 0.0000 -1.0000
vn 0.0000 -0.9885 0.1511
vn 0.0000 1.0000 0.0000
vn 0.0000 -0.1724 0.9850
vn 0.0000 -0.0817 0.9967
vn 0.0000 -0.7284 0.6851
vn 0.0000 -0.5504 0.8349
vn 0.0000 -0.7721 0.6355
vn 0.0000 -0.9079 0.4191
vn 0.0000 -0.9375 0.3480
vn 0.0000 -0.9761 0.2174
vn 0.0000 -0.9918 0.1276
vn 0.0000 -0.0817 -0.9967
vn 0.0000 -0.7284 -0.6851
vn -0.0000 -0.5504 -0.8349
vn -0.0000 -0.7721 -0.6355
vn 0.0000 -0.9079 -0.4191
vn -0.0000 -0.9375 -0.3480
vn -0.0000 -0.9761 -0.2174
vn 0.0000 -0.9918 -0.1276
usemtl Material
s off
f 29/1/1 28/2/1 12/3/1 11/4/1
f 4/5/2 3/6/2 7/7/2 8/8/2
f 8/9/3 7/10/3 5/11/3 6/12/3
f 6/12/4 2/13/4 19/14/4 17/15/4
f 2/13/5 1/16/5 3/6/5 4/5/5
f 6/12/6 5/11/6 1/16/6 2/13/6
f 12/3/3 10/17/3 14/18/3 16/19/3
f 45/20/7 44/21/7 9/22/7 10/23/7
f 28/2/3 45/24/3 10/17/3 12/3/3
f 44/21/5 29/1/5 11/4/5 9/22/5
f 15/25/8 16/26/8 14/27/8 13/28/8
f 10/23/2 9/22/2 13/28/2 14/29/2
f 11/4/6 12/3/6 16/19/6 15/25/6
f 9/22/5 11/4/5 15/25/5 13/28/5
f 17/30/2 19/14/2 20/31/2 18/32/2
f 4/5/9 8/8/9 18/33/9 20/31/9
f 8/9/3 6/12/3 17/15/3 18/34/3
f 2/13/5 4/5/5 20/31/5 19/14/5
f 3/6/5 1/16/5 36/35/5 37/36/5
f 37/36/5 36/35/5 35/37/5 38/38/5
f 38/38/5 35/37/5 34/39/5 39/40/5
f 39/40/5 34/39/5 33/41/5 40/42/5
f 40/42/5 33/41/5 32/43/5 41/44/5
f 41/44/5 32/43/5 31/45/5 42/46/5
f 42/46/5 31/45/5 30/47/5 43/48/5
f 43/48/5 30/47/5 29/1/5 44/21/5
f 5/11/3 7/10/3 52/49/3 21/50/3
f 21/50/3 52/49/3 51/51/3 22/52/3
f 22/52/3 51/51/3 50/53/3 23/54/3
f 23/54/3 50/53/3 49/55/3 24/56/3
f 24/56/3 49/55/3 48/57/3 25/58/3
f 25/58/3 48/57/3 47/59/3 26/60/3
f 26/60/3 47/59/3 46/61/3 27/62/3
f 27/62/3 46/61/3 45/24/3 28/2/3
f 7/7/10 3/6/10 37/36/10 52/63/10
f 52/63/11 37/36/11 38/38/11 51/64/11
f 51/64/12 38/38/12 39/40/12 50/65/12
f 50/65/13 39/40/13 40/42/13 49/66/13
f 49/66/14 40/42/14 41/44/14 48/67/14
f 48/67/15 41/44/15 42/46/15 47/68/15
f 47/68/16 42/46/16 43/48/16 46/69/16
f 46/69/17 43/48/17 44/21/17 45/20/17
f 1/16/18 5/11/18 21/50/18 36/35/18
f 36/35/19 21/50/19 22/52/19 35/37/19
f 35/37/20 22/52/20 23/54/20 34/39/20
f 34/39/21 23/54/21 24/56/21 33/41/21
f 33/41/22 24/56/22 25/58/22 32/43/22
f 32/43/23 25/58/23 26/60/23 31/45/23
f 31/45/24 26/60/24 27/62/24 30/47/24
f 30/47/25 27/62/25 28/2/25 29/1/25
